<mxfile host="www.draw.io" modified="2019-11-20T19:59:54.161Z" agent="Mozilla/5.0 (X11; Linux x86_64) AppleWebKit/537.36 (KHTML, like Gecko) Chrome/78.0.3904.97 Safari/537.36" etag="WHeliS3csbCUlUSDnzjh" version="12.2.7" type="github" pages="1">
  <diagram id="Xgl5wQaYLAKlFyreFNFN" name="Page-1">
    <mxGraphModel dx="259" dy="451" grid="1" gridSize="10" guides="1" tooltips="1" connect="1" arrows="1" fold="1" page="1" pageScale="1" pageWidth="850" pageHeight="1100" math="0" shadow="0">
      <root>
        <mxCell id="0"/>
        <mxCell id="1" parent="0"/>
        <mxCell id="XWcXuoJjSwJ98NiSpnT_-1" value="db_bombocado&lt;br&gt;" style="shape=datastore;whiteSpace=wrap;html=1;" parent="1" vertex="1">
          <mxGeometry x="380" y="30" width="90" height="80" as="geometry"/>
        </mxCell>
        <mxCell id="XWcXuoJjSwJ98NiSpnT_-12" value="users" style="swimlane;fontStyle=0;childLayout=stackLayout;horizontal=1;startSize=22;horizontalStack=0;resizeParent=1;resizeParentMax=0;resizeLast=0;collapsible=1;marginBottom=0;swimlaneFillColor=none;align=center;fontSize=14;rounded=0;shadow=0;glass=0;comic=0;labelBackgroundColor=none;strokeColor=#FFFFFF;" parent="1" vertex="1">
          <mxGeometry x="567" y="319.5" width="150" height="256" as="geometry"/>
        </mxCell>
        <mxCell id="XWcXuoJjSwJ98NiSpnT_-13" value="id (integer)&#xa; " style="text;spacingLeft=4;spacingRight=4;overflow=hidden;rotatable=0;points=[[0,0.5],[1,0.5]];portConstraint=eastwest;fontSize=12;rounded=1;glass=0;shadow=0;comic=0;strokeColor=#FFFFFF;" parent="XWcXuoJjSwJ98NiSpnT_-12" vertex="1">
          <mxGeometry y="22" width="150" height="26" as="geometry"/>
        </mxCell>
        <mxCell id="XWcXuoJjSwJ98NiSpnT_-14" value="name (varchar - 255)" style="text;spacingLeft=4;spacingRight=4;overflow=hidden;rotatable=0;points=[[0,0.5],[1,0.5]];portConstraint=eastwest;fontSize=12;rounded=1;glass=0;shadow=0;comic=0;strokeColor=#FFFFFF;" parent="XWcXuoJjSwJ98NiSpnT_-12" vertex="1">
          <mxGeometry y="48" width="150" height="26" as="geometry"/>
        </mxCell>
        <mxCell id="XWcXuoJjSwJ98NiSpnT_-15" value="username (varchar - 255)" style="text;spacingLeft=4;spacingRight=4;overflow=hidden;rotatable=0;points=[[0,0.5],[1,0.5]];portConstraint=eastwest;fontSize=12;rounded=1;glass=0;shadow=0;comic=0;strokeColor=#FFFFFF;" parent="XWcXuoJjSwJ98NiSpnT_-12" vertex="1">
          <mxGeometry y="74" width="150" height="26" as="geometry"/>
        </mxCell>
        <mxCell id="XWcXuoJjSwJ98NiSpnT_-32" value="email (varchar - 255)" style="text;spacingLeft=4;spacingRight=4;overflow=hidden;rotatable=0;points=[[0,0.5],[1,0.5]];portConstraint=eastwest;fontSize=12;rounded=1;glass=0;shadow=0;comic=0;strokeColor=#FFFFFF;" parent="XWcXuoJjSwJ98NiSpnT_-12" vertex="1">
          <mxGeometry y="100" width="150" height="26" as="geometry"/>
        </mxCell>
        <mxCell id="XWcXuoJjSwJ98NiSpnT_-16" value="password (char - 90)&#xa;" style="text;spacingLeft=4;spacingRight=4;overflow=hidden;rotatable=0;points=[[0,0.5],[1,0.5]];portConstraint=eastwest;fontSize=12;rounded=1;glass=0;shadow=0;comic=0;strokeColor=#FFFFFF;" parent="XWcXuoJjSwJ98NiSpnT_-12" vertex="1">
          <mxGeometry y="126" width="150" height="26" as="geometry"/>
        </mxCell>
        <mxCell id="XWcXuoJjSwJ98NiSpnT_-17" value="isActive (boolean)&#xa; " style="text;spacingLeft=4;spacingRight=4;overflow=hidden;rotatable=0;points=[[0,0.5],[1,0.5]];portConstraint=eastwest;fontSize=12;rounded=1;glass=0;shadow=0;comic=0;strokeColor=#FFFFFF;" parent="XWcXuoJjSwJ98NiSpnT_-12" vertex="1">
          <mxGeometry y="152" width="150" height="26" as="geometry"/>
        </mxCell>
        <mxCell id="XWcXuoJjSwJ98NiSpnT_-19" value="createdAt (timestamp)" style="text;spacingLeft=4;spacingRight=4;overflow=hidden;rotatable=0;points=[[0,0.5],[1,0.5]];portConstraint=eastwest;fontSize=12;rounded=1;glass=0;shadow=0;comic=0;strokeColor=#FFFFFF;" parent="XWcXuoJjSwJ98NiSpnT_-12" vertex="1">
          <mxGeometry y="178" width="150" height="26" as="geometry"/>
        </mxCell>
        <mxCell id="XWcXuoJjSwJ98NiSpnT_-18" value="updatedAt (timestamp)" style="text;spacingLeft=4;spacingRight=4;overflow=hidden;rotatable=0;points=[[0,0.5],[1,0.5]];portConstraint=eastwest;fontSize=12;rounded=1;glass=0;shadow=0;comic=0;strokeColor=#FFFFFF;" parent="XWcXuoJjSwJ98NiSpnT_-12" vertex="1">
          <mxGeometry y="204" width="150" height="26" as="geometry"/>
        </mxCell>
        <mxCell id="0BEZGtzncr5ZLTs9UO6P-1" value="id_address (integer)&#xa; " style="text;spacingLeft=4;spacingRight=4;overflow=hidden;rotatable=0;points=[[0,0.5],[1,0.5]];portConstraint=eastwest;fontSize=12;rounded=1;glass=0;shadow=0;comic=0;strokeColor=#FFFFFF;" parent="XWcXuoJjSwJ98NiSpnT_-12" vertex="1">
          <mxGeometry y="230" width="150" height="26" as="geometry"/>
        </mxCell>
        <mxCell id="XWcXuoJjSwJ98NiSpnT_-20" value="" style="aspect=fixed;html=1;points=[];align=center;image;fontSize=12;image=img/lib/mscae/Key.svg;rounded=0;shadow=0;glass=0;comic=0;labelBackgroundColor=none;strokeColor=#FFFFFF;fillColor=none;gradientColor=none;" parent="1" vertex="1">
          <mxGeometry x="550" y="345.5" width="10" height="16" as="geometry"/>
        </mxCell>
        <mxCell id="XWcXuoJjSwJ98NiSpnT_-22" value="cities" style="swimlane;fontStyle=0;childLayout=stackLayout;horizontal=1;startSize=22;horizontalStack=0;resizeParent=1;resizeParentMax=0;resizeLast=0;collapsible=1;marginBottom=0;swimlaneFillColor=none;align=center;fontSize=14;rounded=0;shadow=0;glass=0;comic=0;labelBackgroundColor=none;strokeColor=#FFFFFF;" parent="1" vertex="1">
          <mxGeometry x="517" y="790" width="150" height="74" as="geometry"/>
        </mxCell>
        <mxCell id="XWcXuoJjSwJ98NiSpnT_-23" value="id (integer)&#xa; " style="text;spacingLeft=4;spacingRight=4;overflow=hidden;rotatable=0;points=[[0,0.5],[1,0.5]];portConstraint=eastwest;fontSize=12;rounded=1;glass=0;shadow=0;comic=0;strokeColor=#FFFFFF;" parent="XWcXuoJjSwJ98NiSpnT_-22" vertex="1">
          <mxGeometry y="22" width="150" height="26" as="geometry"/>
        </mxCell>
        <mxCell id="XWcXuoJjSwJ98NiSpnT_-31" value="city (varchar)" style="text;spacingLeft=4;spacingRight=4;overflow=hidden;rotatable=0;points=[[0,0.5],[1,0.5]];portConstraint=eastwest;fontSize=12;rounded=1;glass=0;shadow=0;comic=0;strokeColor=#FFFFFF;" parent="XWcXuoJjSwJ98NiSpnT_-22" vertex="1">
          <mxGeometry y="48" width="150" height="26" as="geometry"/>
        </mxCell>
        <mxCell id="XWcXuoJjSwJ98NiSpnT_-30" value="" style="aspect=fixed;html=1;points=[];align=center;image;fontSize=12;image=img/lib/mscae/Key.svg;rounded=0;shadow=0;glass=0;comic=0;labelBackgroundColor=none;strokeColor=#FFFFFF;fillColor=none;gradientColor=none;" parent="1" vertex="1">
          <mxGeometry x="500" y="816" width="10" height="16" as="geometry"/>
        </mxCell>
        <mxCell id="XWcXuoJjSwJ98NiSpnT_-33" value="neighborhoods" style="swimlane;fontStyle=0;childLayout=stackLayout;horizontal=1;startSize=22;horizontalStack=0;resizeParent=1;resizeParentMax=0;resizeLast=0;collapsible=1;marginBottom=0;swimlaneFillColor=none;align=center;fontSize=14;rounded=0;shadow=0;glass=0;comic=0;labelBackgroundColor=none;strokeColor=#FFFFFF;" parent="1" vertex="1">
          <mxGeometry x="27" y="790" width="150" height="74" as="geometry"/>
        </mxCell>
        <mxCell id="XWcXuoJjSwJ98NiSpnT_-34" value="id (integer)&#xa; " style="text;spacingLeft=4;spacingRight=4;overflow=hidden;rotatable=0;points=[[0,0.5],[1,0.5]];portConstraint=eastwest;fontSize=12;rounded=1;glass=0;shadow=0;comic=0;strokeColor=#FFFFFF;" parent="XWcXuoJjSwJ98NiSpnT_-33" vertex="1">
          <mxGeometry y="22" width="150" height="26" as="geometry"/>
        </mxCell>
        <mxCell id="XWcXuoJjSwJ98NiSpnT_-35" value="neighborhood (varchar)" style="text;spacingLeft=4;spacingRight=4;overflow=hidden;rotatable=0;points=[[0,0.5],[1,0.5]];portConstraint=eastwest;fontSize=12;rounded=1;glass=0;shadow=0;comic=0;strokeColor=#FFFFFF;" parent="XWcXuoJjSwJ98NiSpnT_-33" vertex="1">
          <mxGeometry y="48" width="150" height="26" as="geometry"/>
        </mxCell>
        <mxCell id="XWcXuoJjSwJ98NiSpnT_-36" value="" style="aspect=fixed;html=1;points=[];align=center;image;fontSize=12;image=img/lib/mscae/Key.svg;rounded=0;shadow=0;glass=0;comic=0;labelBackgroundColor=none;strokeColor=#FFFFFF;fillColor=none;gradientColor=none;" parent="1" vertex="1">
          <mxGeometry x="10" y="816" width="10" height="16" as="geometry"/>
        </mxCell>
        <mxCell id="XWcXuoJjSwJ98NiSpnT_-37" value="states" style="swimlane;fontStyle=0;childLayout=stackLayout;horizontal=1;startSize=22;horizontalStack=0;resizeParent=1;resizeParentMax=0;resizeLast=0;collapsible=1;marginBottom=0;swimlaneFillColor=none;align=center;fontSize=14;rounded=0;shadow=0;glass=0;comic=0;labelBackgroundColor=none;strokeColor=#FFFFFF;" parent="1" vertex="1">
          <mxGeometry x="27" y="650" width="150" height="74" as="geometry"/>
        </mxCell>
        <mxCell id="XWcXuoJjSwJ98NiSpnT_-38" value="id (integer)&#xa; " style="text;spacingLeft=4;spacingRight=4;overflow=hidden;rotatable=0;points=[[0,0.5],[1,0.5]];portConstraint=eastwest;fontSize=12;rounded=1;glass=0;shadow=0;comic=0;strokeColor=#FFFFFF;" parent="XWcXuoJjSwJ98NiSpnT_-37" vertex="1">
          <mxGeometry y="22" width="150" height="26" as="geometry"/>
        </mxCell>
        <mxCell id="XWcXuoJjSwJ98NiSpnT_-39" value="state (varchar)" style="text;spacingLeft=4;spacingRight=4;overflow=hidden;rotatable=0;points=[[0,0.5],[1,0.5]];portConstraint=eastwest;fontSize=12;rounded=1;glass=0;shadow=0;comic=0;strokeColor=#FFFFFF;" parent="XWcXuoJjSwJ98NiSpnT_-37" vertex="1">
          <mxGeometry y="48" width="150" height="26" as="geometry"/>
        </mxCell>
        <mxCell id="XWcXuoJjSwJ98NiSpnT_-40" value="" style="aspect=fixed;html=1;points=[];align=center;image;fontSize=12;image=img/lib/mscae/Key.svg;rounded=0;shadow=0;glass=0;comic=0;labelBackgroundColor=none;strokeColor=#FFFFFF;fillColor=none;gradientColor=none;" parent="1" vertex="1">
          <mxGeometry x="10" y="676" width="10" height="16" as="geometry"/>
        </mxCell>
        <mxCell id="XWcXuoJjSwJ98NiSpnT_-41" value="addresses" style="swimlane;fontStyle=0;childLayout=stackLayout;horizontal=1;startSize=22;horizontalStack=0;resizeParent=1;resizeParentMax=0;resizeLast=0;collapsible=1;marginBottom=0;swimlaneFillColor=none;align=center;fontSize=14;rounded=0;shadow=0;glass=0;comic=0;labelBackgroundColor=none;strokeColor=#FFFFFF;" parent="1" vertex="1">
          <mxGeometry x="272" y="570" width="150" height="230" as="geometry"/>
        </mxCell>
        <mxCell id="XWcXuoJjSwJ98NiSpnT_-42" value="id (integer)&#xa; " style="text;spacingLeft=4;spacingRight=4;overflow=hidden;rotatable=0;points=[[0,0.5],[1,0.5]];portConstraint=eastwest;fontSize=12;rounded=1;glass=0;shadow=0;comic=0;strokeColor=#FFFFFF;" parent="XWcXuoJjSwJ98NiSpnT_-41" vertex="1">
          <mxGeometry y="22" width="150" height="26" as="geometry"/>
        </mxCell>
        <mxCell id="XWcXuoJjSwJ98NiSpnT_-43" value="id_city (integer)&#xa;" style="text;spacingLeft=4;spacingRight=4;overflow=hidden;rotatable=0;points=[[0,0.5],[1,0.5]];portConstraint=eastwest;fontSize=12;rounded=1;glass=0;shadow=0;comic=0;strokeColor=#FFFFFF;" parent="XWcXuoJjSwJ98NiSpnT_-41" vertex="1">
          <mxGeometry y="48" width="150" height="26" as="geometry"/>
        </mxCell>
        <mxCell id="XWcXuoJjSwJ98NiSpnT_-45" value="id_neighborhood (integer)&#xa;" style="text;spacingLeft=4;spacingRight=4;overflow=hidden;rotatable=0;points=[[0,0.5],[1,0.5]];portConstraint=eastwest;fontSize=12;rounded=1;glass=0;shadow=0;comic=0;strokeColor=#FFFFFF;" parent="XWcXuoJjSwJ98NiSpnT_-41" vertex="1">
          <mxGeometry y="74" width="150" height="26" as="geometry"/>
        </mxCell>
        <mxCell id="XWcXuoJjSwJ98NiSpnT_-46" value="id_state (integer)" style="text;spacingLeft=4;spacingRight=4;overflow=hidden;rotatable=0;points=[[0,0.5],[1,0.5]];portConstraint=eastwest;fontSize=12;rounded=1;glass=0;shadow=0;comic=0;strokeColor=#FFFFFF;" parent="XWcXuoJjSwJ98NiSpnT_-41" vertex="1">
          <mxGeometry y="100" width="150" height="26" as="geometry"/>
        </mxCell>
        <mxCell id="qKbNDZDdPTAzZ2HC2TwR-2" value="zipcode (char 8)" style="text;spacingLeft=4;spacingRight=4;overflow=hidden;rotatable=0;points=[[0,0.5],[1,0.5]];portConstraint=eastwest;fontSize=12;rounded=1;glass=0;shadow=0;comic=0;strokeColor=#FFFFFF;" vertex="1" parent="XWcXuoJjSwJ98NiSpnT_-41">
          <mxGeometry y="126" width="150" height="26" as="geometry"/>
        </mxCell>
        <mxCell id="qKbNDZDdPTAzZ2HC2TwR-1" value="number (char 15)" style="text;spacingLeft=4;spacingRight=4;overflow=hidden;rotatable=0;points=[[0,0.5],[1,0.5]];portConstraint=eastwest;fontSize=12;rounded=1;glass=0;shadow=0;comic=0;strokeColor=#FFFFFF;" vertex="1" parent="XWcXuoJjSwJ98NiSpnT_-41">
          <mxGeometry y="152" width="150" height="26" as="geometry"/>
        </mxCell>
        <mxCell id="qKbNDZDdPTAzZ2HC2TwR-3" value="street (varchar)" style="text;spacingLeft=4;spacingRight=4;overflow=hidden;rotatable=0;points=[[0,0.5],[1,0.5]];portConstraint=eastwest;fontSize=12;rounded=1;glass=0;shadow=0;comic=0;strokeColor=#FFFFFF;" vertex="1" parent="XWcXuoJjSwJ98NiSpnT_-41">
          <mxGeometry y="178" width="150" height="26" as="geometry"/>
        </mxCell>
        <mxCell id="qKbNDZDdPTAzZ2HC2TwR-4" value="complement (varchar)" style="text;spacingLeft=4;spacingRight=4;overflow=hidden;rotatable=0;points=[[0,0.5],[1,0.5]];portConstraint=eastwest;fontSize=12;rounded=1;glass=0;shadow=0;comic=0;strokeColor=#FFFFFF;" vertex="1" parent="XWcXuoJjSwJ98NiSpnT_-41">
          <mxGeometry y="204" width="150" height="26" as="geometry"/>
        </mxCell>
        <mxCell id="XWcXuoJjSwJ98NiSpnT_-44" value="" style="aspect=fixed;html=1;points=[];align=center;image;fontSize=12;image=img/lib/mscae/Key.svg;rounded=0;shadow=0;glass=0;comic=0;labelBackgroundColor=none;strokeColor=#FFFFFF;fillColor=none;gradientColor=none;" parent="1" vertex="1">
          <mxGeometry x="255" y="596" width="10" height="16" as="geometry"/>
        </mxCell>
        <mxCell id="XWcXuoJjSwJ98NiSpnT_-47" value="" style="pointerEvents=1;shadow=0;dashed=0;html=1;strokeColor=none;fillColor=#505050;labelPosition=center;verticalLabelPosition=bottom;verticalAlign=top;outlineConnect=0;align=center;shape=mxgraph.office.security.key_permissions;rounded=0;glass=0;comic=0;labelBackgroundColor=none;fontColor=#000000;" parent="1" vertex="1">
          <mxGeometry x="255" y="623.5" width="10" height="19" as="geometry"/>
        </mxCell>
        <mxCell id="XWcXuoJjSwJ98NiSpnT_-48" value="" style="pointerEvents=1;shadow=0;dashed=0;html=1;strokeColor=none;fillColor=#505050;labelPosition=center;verticalLabelPosition=bottom;verticalAlign=top;outlineConnect=0;align=center;shape=mxgraph.office.security.key_permissions;rounded=0;glass=0;comic=0;labelBackgroundColor=none;fontColor=#000000;" parent="1" vertex="1">
          <mxGeometry x="255" y="650" width="10" height="19" as="geometry"/>
        </mxCell>
        <mxCell id="XWcXuoJjSwJ98NiSpnT_-49" value="" style="pointerEvents=1;shadow=0;dashed=0;html=1;strokeColor=none;fillColor=#505050;labelPosition=center;verticalLabelPosition=bottom;verticalAlign=top;outlineConnect=0;align=center;shape=mxgraph.office.security.key_permissions;rounded=0;glass=0;comic=0;labelBackgroundColor=none;fontColor=#000000;" parent="1" vertex="1">
          <mxGeometry x="255" y="677" width="10" height="19" as="geometry"/>
        </mxCell>
        <mxCell id="XWcXuoJjSwJ98NiSpnT_-52" value="" style="fontSize=12;html=1;endArrow=ERmandOne;startArrow=ERmandOne;edgeStyle=orthogonalEdgeStyle;entryX=1;entryY=0.5;entryDx=0;entryDy=0;exitX=0.071;exitY=0.545;exitDx=0;exitDy=0;exitPerimeter=0;" parent="1" source="XWcXuoJjSwJ98NiSpnT_-30" target="XWcXuoJjSwJ98NiSpnT_-43" edge="1">
          <mxGeometry width="100" height="100" relative="1" as="geometry">
            <mxPoint x="390" y="760" as="sourcePoint"/>
            <mxPoint x="609" y="586.5" as="targetPoint"/>
            <Array as="points">
              <mxPoint x="460" y="825"/>
              <mxPoint x="460" y="631"/>
            </Array>
          </mxGeometry>
        </mxCell>
        <mxCell id="XWcXuoJjSwJ98NiSpnT_-55" value="" style="fontSize=12;html=1;endArrow=ERmandOne;startArrow=ERmandOne;edgeStyle=orthogonalEdgeStyle;" parent="1" target="XWcXuoJjSwJ98NiSpnT_-48" edge="1">
          <mxGeometry width="100" height="100" relative="1" as="geometry">
            <mxPoint x="180" y="824" as="sourcePoint"/>
            <mxPoint x="230" y="670" as="targetPoint"/>
            <Array as="points">
              <mxPoint x="230" y="824"/>
              <mxPoint x="230" y="660"/>
            </Array>
          </mxGeometry>
        </mxCell>
        <mxCell id="XWcXuoJjSwJ98NiSpnT_-56" value="" style="fontSize=12;html=1;endArrow=ERmandOne;startArrow=ERmandOne;edgeStyle=orthogonalEdgeStyle;exitX=1;exitY=0.5;exitDx=0;exitDy=0;" parent="1" source="XWcXuoJjSwJ98NiSpnT_-38" target="XWcXuoJjSwJ98NiSpnT_-49" edge="1">
          <mxGeometry width="100" height="100" relative="1" as="geometry">
            <mxPoint x="190" y="686" as="sourcePoint"/>
            <mxPoint x="226" y="641.6428571428571" as="targetPoint"/>
            <Array as="points">
              <mxPoint x="230" y="685"/>
              <mxPoint x="230" y="685"/>
            </Array>
          </mxGeometry>
        </mxCell>
        <mxCell id="0BEZGtzncr5ZLTs9UO6P-2" value="" style="pointerEvents=1;shadow=0;dashed=0;html=1;strokeColor=none;fillColor=#505050;labelPosition=center;verticalLabelPosition=bottom;verticalAlign=top;outlineConnect=0;align=center;shape=mxgraph.office.security.key_permissions;rounded=0;glass=0;comic=0;labelBackgroundColor=none;fontColor=#000000;" parent="1" vertex="1">
          <mxGeometry x="550" y="551" width="10" height="19" as="geometry"/>
        </mxCell>
        <mxCell id="0BEZGtzncr5ZLTs9UO6P-3" value="" style="fontSize=12;html=1;endArrow=ERmandOne;startArrow=ERmandOne;edgeStyle=orthogonalEdgeStyle;entryX=0;entryY=0.481;entryDx=0;entryDy=0;exitX=1;exitY=0.5;exitDx=0;exitDy=0;entryPerimeter=0;" parent="1" source="XWcXuoJjSwJ98NiSpnT_-42" target="0BEZGtzncr5ZLTs9UO6P-2" edge="1">
          <mxGeometry width="100" height="100" relative="1" as="geometry">
            <mxPoint x="480.42857142857133" y="713.7142857142858" as="sourcePoint"/>
            <mxPoint x="483.2857142857142" y="520" as="targetPoint"/>
            <Array as="points">
              <mxPoint x="510" y="605"/>
              <mxPoint x="510" y="560"/>
            </Array>
          </mxGeometry>
        </mxCell>
      </root>
    </mxGraphModel>
  </diagram>
</mxfile>
